<?xml version="1.0" encoding="UTF-8"?>
<svg id="Layer_1" data-name="Layer 1" xmlns="http://www.w3.org/2000/svg" viewBox="700 700 1600 600">
  <g>
    <path d="M1138.25,834.56c-.39.23-.78.46-1.16.7-42.46-27.34-95.03-39.16-148.61-29.18-111.37,20.74-184.85,127.85-164.11,239.23,2.49,13.39,6.23,26.22,11.07,38.41-74.79,84.25-109.69,160.89-26.74,142.67,31.42-6.91,68.97-22.61,109.25-44.29-15.79-9.79-30.25-21.72-42.91-35.44-1.9.74-3.79,1.47-5.65,2.14-57.72,21.1-59.28-6.33-28.08-51.7,8.85,18.31,20.28,34.96,33.72,49.56.87-.33,1.74-.68,2.61-1.03h0s.01.01.01.01c52.37-21.07,119.93-65.52,181.14-115.53,1.06-.86,2.13-1.73,3.19-2.6,55.23-45.43,104.93-95.18,133.13-135.98-12.58-18.28-27.98-34.27-45.45-47.46.57-.26,1.12-.52,1.69-.77,49.1-22.15,79.1-21.46,61.17,18.33-3.78,8.4-9.02,17.5-15.51,27.12-.62.92-1.26,1.86-1.91,2.78,11.41,16.58,20.51,35.06,26.72,55.03,1.14-1.2,2.27-2.4,3.38-3.6,49.99-53.6,85.07-104.28,92.05-141.2,10.91-57.84-79.32-27.18-179.03,32.81Z" fill="#fff"/>
    <path d="M919.21,1181.42c-.42.24-.83.46-1.25.68,41.93,26,93.31,37.07,145.63,27.32,111.38-20.74,184.86-127.85,164.12-239.22-1.51-8.09-3.46-15.98-5.87-23.65-81.44,86.39-200.64,179.7-302.62,234.87h-.02Z" fill="#fff"/>
  </g>
  <path d="M1287.11,1199.77l42.31-267.06h90.43l-6.61,45.48c8.29-16.92,19.39-29.79,33.32-38.61,13.92-8.81,30.15-13.22,48.65-13.22,1.94,0,4.14.13,6.61.4,2.47.27,6.35.84,11.64,1.72l-18.77,83.82c-6.17-1.41-11.72-2.47-16.66-3.17-4.94-.7-9.69-1.06-14.28-1.06-18.16,0-32.48,5.69-42.97,17.05-10.49,11.37-17.67,28.96-21.55,52.75l-19.04,121.9h-93.07Z" fill="#fff"/>
  <path d="M1649.36,929.53c-.71,5.47-1.94,11.41-3.7,17.85-1.76,6.44-4.14,13.88-7.14,22.34,15.16-14.98,30.67-26.13,46.54-33.45,15.87-7.31,32.17-10.97,48.92-10.97,30.85,0,56.14,11.55,75.89,34.64,19.74,23.1,29.62,52.88,29.62,89.37,0,46.18-13.27,84.52-39.8,115.02-26.53,30.5-59.8,45.74-99.82,45.74-17.63,0-33.76-3.79-48.39-11.37-14.64-7.58-28.82-19.47-42.57-35.7l-6.08,36.75h-87.79l65.05-409.84h91.49l-22.21,139.61ZM1744.82,1056.19c0-17.1-5.25-30.85-15.73-41.25-10.49-10.4-24.2-15.6-41.12-15.6-18.86,0-34.51,7.18-46.93,21.55-12.43,14.37-18.64,32.48-18.64,54.34,0,16.57,5.2,30.01,15.6,40.32,10.4,10.31,23.97,15.47,40.72,15.47,19.21,0,35.04-7.05,47.46-21.15,12.43-14.1,18.64-31.99,18.64-53.68Z" fill="#fff"/>
  <polygon points="1878.61 1199.77 1920.65 932.7 2015.58 932.7 1973.27 1199.77 1878.61 1199.77" fill="#fff"/>
  <path d="M2055.5,1199.77l31.46-198.84h-44.42l10.84-68.22h0c25.55,0,47.28-18.65,51.16-43.91l3.76-24.51h94.13l-3.46,21.16c-3.98,24.79,15.17,47.26,40.28,47.26h0l-10.84,68.22h-47.86l-31.2,198.84h-93.87Z" fill="#fff"/>
  <polygon points="2017.35 900.37 1975.12 877.94 1931.49 897.51 1939.77 850.42 1907.67 814.98 1955.02 808.3 1978.81 766.82 1999.79 809.79 2046.6 819.59 2012.21 852.83 2017.35 900.37" fill="#fff"/>
</svg>